<svg width="145" height="33" viewBox="0 0 145 33" fill="none" xmlns="http://www.w3.org/2000/svg">
<path d="M7.384 5.92C9.64533 5.92 11.448 6.48533 12.792 7.616C14.1573 8.74667 15.0107 10.24 15.352 12.096H10.232C10.0827 11.3707 9.74133 10.8053 9.208 10.4C8.696 9.97333 8.04533 9.76 7.256 9.76C6.63733 9.76 6.168 9.89867 5.848 10.176C5.528 10.432 5.368 10.8053 5.368 11.296C5.368 11.8507 5.656 12.2667 6.232 12.544C6.82933 12.8213 7.75733 13.0987 9.016 13.376C10.3813 13.696 11.5013 14.0267 12.376 14.368C13.2507 14.688 14.008 15.2213 14.648 15.968C15.288 16.7147 15.608 17.7173 15.608 18.976C15.608 20 15.3307 20.9067 14.776 21.696C14.2213 22.4853 13.4213 23.104 12.376 23.552C11.3307 24 10.0933 24.224 8.664 24.224C6.25333 24.224 4.32267 23.6907 2.872 22.624C1.42133 21.5573 0.536 20.032 0.216 18.048H5.496C5.58133 18.816 5.90133 19.4027 6.456 19.808C7.032 20.2133 7.768 20.416 8.664 20.416C9.28267 20.416 9.752 20.2773 10.072 20C10.392 19.7013 10.552 19.3173 10.552 18.848C10.552 18.2293 10.2533 17.792 9.656 17.536C9.08 17.2587 8.13067 16.9707 6.808 16.672C5.48533 16.3947 4.39733 16.096 3.544 15.776C2.69067 15.456 1.95467 14.944 1.336 14.24C0.717333 13.5147 0.408 12.5333 0.408 11.296C0.408 9.696 1.016 8.40533 2.232 7.424C3.448 6.42133 5.16533 5.92 7.384 5.92ZM29.966 5.952C32.014 5.952 33.6353 6.63467 34.83 8C36.046 9.36533 36.654 11.2427 36.654 13.632V24H31.182V14.272C31.182 13.0773 30.862 12.1493 30.222 11.488C29.6033 10.8053 28.7713 10.464 27.726 10.464C26.6167 10.464 25.7313 10.816 25.07 11.52C24.43 12.224 24.11 13.2267 24.11 14.528V24H18.638V0.32H24.11V9.408C24.622 8.34133 25.3793 7.49867 26.382 6.88C27.406 6.26133 28.6007 5.952 29.966 5.952ZM48.615 5.92C50.3857 5.92 51.9643 6.29333 53.351 7.04C54.759 7.76533 55.8577 8.82133 56.647 10.208C57.4577 11.5947 57.863 13.216 57.863 15.072C57.863 16.928 57.4577 18.5493 56.647 19.936C55.8577 21.3227 54.759 22.3893 53.351 23.136C51.9643 23.8613 50.3857 24.224 48.615 24.224C46.8443 24.224 45.255 23.8613 43.847 23.136C42.439 22.3893 41.3297 21.3227 40.519 19.936C39.7297 18.5493 39.335 16.928 39.335 15.072C39.335 13.216 39.7297 11.5947 40.519 10.208C41.3297 8.82133 42.439 7.76533 43.847 7.04C45.255 6.29333 46.8443 5.92 48.615 5.92ZM48.615 10.656C47.5697 10.656 46.6843 11.04 45.959 11.808C45.255 12.5547 44.903 13.6427 44.903 15.072C44.903 16.5013 45.255 17.5893 45.959 18.336C46.6843 19.0827 47.5697 19.456 48.615 19.456C49.6603 19.456 50.535 19.0827 51.239 18.336C51.943 17.5893 52.295 16.5013 52.295 15.072C52.295 13.6427 51.943 12.5547 51.239 11.808C50.535 11.04 49.6603 10.656 48.615 10.656ZM71.8365 5.92C73.3085 5.92 74.6205 6.29333 75.7725 7.04C76.9458 7.76533 77.8632 8.82133 78.5245 10.208C79.2072 11.5733 79.5485 13.1947 79.5485 15.072C79.5485 16.928 79.2072 18.5493 78.5245 19.936C77.8632 21.3227 76.9458 22.3893 75.7725 23.136C74.6205 23.8613 73.3085 24.224 71.8365 24.224C70.4712 24.224 69.2978 23.9147 68.3165 23.296C67.3352 22.6773 66.6205 21.8347 66.1725 20.768V32.512H60.7005V6.144H66.1725V9.376C66.6205 8.30933 67.3352 7.46667 68.3165 6.848C69.2978 6.22933 70.4712 5.92 71.8365 5.92ZM70.0765 10.72C68.9245 10.72 67.9752 11.1147 67.2285 11.904C66.5032 12.672 66.1405 13.728 66.1405 15.072C66.1405 16.3947 66.5032 17.4507 67.2285 18.24C67.9752 19.0293 68.9245 19.424 70.0765 19.424C71.2498 19.424 72.1885 19.04 72.8925 18.272C73.6178 17.504 73.9805 16.4373 73.9805 15.072C73.9805 13.7067 73.6178 12.64 72.8925 11.872C72.1885 11.104 71.2498 10.72 70.0765 10.72ZM90.644 6.304C92.8627 6.304 94.6973 6.89067 96.148 8.064C97.62 9.23733 98.516 10.7947 98.836 12.736H96.5C96.2653 11.3493 95.6147 10.2613 94.548 9.472C93.4813 8.66133 92.1693 8.256 90.612 8.256C89.4813 8.256 88.436 8.512 87.476 9.024C86.5373 9.536 85.78 10.3253 85.204 11.392C84.6493 12.4373 84.372 13.728 84.372 15.264C84.372 16.8 84.6493 18.1013 85.204 19.168C85.78 20.2133 86.5373 20.992 87.476 21.504C88.436 22.016 89.4813 22.272 90.612 22.272C92.1693 22.272 93.4813 21.8773 94.548 21.088C95.6147 20.2773 96.2653 19.1787 96.5 17.792H98.836C98.516 19.7333 97.62 21.2907 96.148 22.464C94.6973 23.6373 92.8627 24.224 90.644 24.224C88.98 24.224 87.4973 23.872 86.196 23.168C84.916 22.4427 83.9133 21.408 83.188 20.064C82.4627 18.6987 82.1 17.0987 82.1 15.264C82.1 13.4293 82.4627 11.84 83.188 10.496C83.9133 9.13067 84.916 8.096 86.196 7.392C87.4973 6.66667 88.98 6.304 90.644 6.304ZM110.23 6.304C112 6.304 113.504 6.76267 114.742 7.68C116 8.59733 116.864 9.81333 117.333 11.328V6.528H119.542V24H117.333V19.2C116.864 20.7147 116 21.9307 114.742 22.848C113.504 23.7653 112 24.224 110.23 24.224C108.651 24.224 107.232 23.8613 105.974 23.136C104.736 22.4107 103.766 21.376 103.062 20.032C102.379 18.6667 102.038 17.0773 102.038 15.264C102.038 13.4293 102.379 11.84 103.062 10.496C103.766 9.13067 104.736 8.096 105.974 7.392C107.211 6.66667 108.63 6.304 110.23 6.304ZM110.806 8.288C108.843 8.288 107.264 8.91733 106.07 10.176C104.896 11.4133 104.31 13.1093 104.31 15.264C104.31 17.4187 104.896 19.1253 106.07 20.384C107.264 21.6213 108.843 22.24 110.806 22.24C112.043 22.24 113.152 21.952 114.134 21.376C115.136 20.8 115.915 19.9893 116.47 18.944C117.046 17.8773 117.333 16.6507 117.333 15.264C117.333 13.8773 117.046 12.6613 116.47 11.616C115.915 10.5493 115.136 9.728 114.134 9.152C113.152 8.576 112.043 8.288 110.806 8.288ZM126.673 10.144C127.185 8.88533 128.006 7.91467 129.137 7.232C130.267 6.54933 131.643 6.208 133.265 6.208V8.64H132.529C130.843 8.64 129.446 9.09867 128.337 10.016C127.227 10.912 126.673 12.384 126.673 14.432V24H124.401V6.528H126.673V10.144ZM144.181 22.016V24H142.101C140.415 24 139.157 23.6053 138.325 22.816C137.493 22.0053 137.077 20.6507 137.077 18.752V8.48H134.421V6.528H137.077V2.112H139.349V6.528H144.149V8.48H139.349V18.784C139.349 20.0213 139.573 20.8747 140.021 21.344C140.469 21.792 141.258 22.016 142.389 22.016H144.181Z" fill="black"/>
</svg>
